HIERARCHY
ROOT Hips
{
	OFFSET 0.00000 0.00000 0.00000
	CHANNELS 6 Xposition Yposition Zposition Zrotation Yrotation Xrotation 
	JOINT LHipJoint
	{
		OFFSET 0 0 0
		CHANNELS 3 Zrotation Yrotation Xrotation
		JOINT LeftHip
		{
			OFFSET 3.13874 -1.57224 1.49786
			CHANNELS 3 Zrotation Yrotation Xrotation
			JOINT LeftKnee
			{
				OFFSET 2.10955 -5.79594 0.00000
				CHANNELS 3 Zrotation Yrotation Xrotation
				JOINT LeftAnkle
				{
					OFFSET 2.41843 -6.64458 0.00000
					CHANNELS 3 Zrotation Yrotation Xrotation
					JOINT LeftToe
					{
						OFFSET 0.04713 -0.12948 1.66229
						CHANNELS 3 Zrotation Yrotation Xrotation
						End Site
						{
							OFFSET 0.00000 -0.00000 0.85167
						}
					}
				}
			}
		}
	}
	JOINT RHipJoint
	{
		OFFSET 0 0 0
		CHANNELS 3 Zrotation Yrotation Xrotation
		JOINT RightHip
		{
			OFFSET -3.13988 -1.57224 1.49786
			CHANNELS 3 Zrotation Yrotation Xrotation
			JOINT RightKnee
			{
				OFFSET -2.15006 -5.90725 0.00000
				CHANNELS 3 Zrotation Yrotation Xrotation
				JOINT RightAnkle
				{
					OFFSET -2.34496 -6.44273 0.00000
					CHANNELS 3 Zrotation Yrotation Xrotation
					JOINT RightToe
					{
						OFFSET -0.08699 -0.23900 1.55223
						CHANNELS 3 Zrotation Yrotation Xrotation
						End Site
						{
							OFFSET -0.00000 -0.00000 0.80281
						}
					}
				}
			}
		}
	}
	JOINT lowerback
	{
		OFFSET 0 0 0
		CHANNELS 3 Zrotation Yrotation Xrotation
		JOINT Chest
		{
			OFFSET 0.01292 1.96517 -0.16495
			CHANNELS 3 Zrotation Yrotation Xrotation
			JOINT Chest2
			{
				OFFSET 0.02122 1.88666 0.19706
				CHANNELS 3 Zrotation Yrotation Xrotation
				JOINT lowerneck
				{
					OFFSET 0 0 0
					CHANNELS 3 Zrotation Yrotation Xrotation
					JOINT Neck
					{
						OFFSET -0.01683 1.81591 0.07903
						CHANNELS 3 Zrotation Yrotation Xrotation
						JOINT Head
						{
							OFFSET 0.00815 1.74013 -0.47700
							CHANNELS 3 Zrotation Yrotation Xrotation
							End Site
							{
								OFFSET -0.00204 1.83225 -0.16933
							}
						}
					}
				}
				JOINT LeftCollar
				{
					OFFSET 0 0 0
					CHANNELS 3 Zrotation Yrotation Xrotation
					JOINT LeftShoulder
					{
						OFFSET 3.38482 1.41533 0.19802
CHANNELS 3 Zrotation Xrotation Yrotation
						JOINT LeftElbow
						{
OFFSET 0 -4.327120 0.000000
CHANNELS 3 Zrotation Xrotation Yrotation
							JOINT LeftWrist
							{
OFFSET 0 -3.285870 -0.000000
CHANNELS 3 Zrotation Xrotation Yrotation
								JOINT lhand
								{
									OFFSET 0 0 0
CHANNELS 3 Zrotation Xrotation Yrotation
									JOINT LFingers
									{
OFFSET 0 -0.433160 -0.000000
CHANNELS 3 Zrotation Xrotation Yrotation
										End Site
										{
OFFSET 0 -0.349220 -0.000000
										}
									}
								}
								JOINT LThumb
								{
OFFSET 0 0.000000 0.000000
CHANNELS 3 Zrotation Xrotation Yrotation
									End Site
									{
OFFSET 0 -0.354560 0.354560
									}
								}
							}
						}
					}
				}
				JOINT RightCollar
				{
					OFFSET 0 0 0
					CHANNELS 3 Zrotation Yrotation Xrotation
					JOINT RightShoulder
					{
						OFFSET -3.09725 1.62858 -0.14144
CHANNELS 3 Zrotation Xrotation Yrotation
						JOINT RightElbow
						{
OFFSET 0 -4.291040 0.000000
CHANNELS 3 Zrotation Xrotation Yrotation
							JOINT RightWrist
							{
OFFSET 0 -3.227200 -0.000000
CHANNELS 3 Zrotation Xrotation Yrotation
								JOINT rhand
								{
									OFFSET 0 0 0
CHANNELS 3 Zrotation Xrotation Yrotation
									JOINT RFingers
									{
OFFSET 0 -0.543620 -0.000000
CHANNELS 3 Zrotation Xrotation Yrotation
										End Site
										{
OFFSET 0 -0.438280 -0.000000
										}
									}
								}
								JOINT RThumb
								{
OFFSET 0 0.000000 0.000000
CHANNELS 3 Zrotation Xrotation Yrotation
									End Site
									{
OFFSET 0 -0.444970 0.444970
									}
								}
							}
						}
					}
				}
			}
		}
	}
}
MOTION
Frames: 4
Frame Time: 0.008333333333333333
3.357242 16.761465 2.301706 -177.617092 -26.061483 -169.431331 0.000000 0.000000 0.000000 -30.032111 -36.519593 22.876582 0.029919 -1.116784 -3.070297 9.026434 -16.676506 -56.181646 0.325456 -3.666445 -10.140164 0.000000 0.000000 0.000000 32.032270 31.107360 19.017155 -0.219148 3.013813 -8.317136 -3.762375 -19.835437 -47.135899 -0.384180 -3.979750 11.019673 1.636226 3.818113 3.449920 -2.290039 3.430847 -15.521577 -4.003574 0.338972 -19.490066 10.990189 8.796879 -14.122601 -9.967067 11.517391 34.219693 -4.307047 4.183686 15.797415 0.000000 0.000000 0.000000 80.896259 18.592134 16.805506 17.263698 -27.204067 4.207214 78.672269 55.247396 -33.213984 0.000000 0.000000 0.000000 -7.125000 0.000000 0.000000 111.674470 -69.434680 133.203243 0.000000 0.000000 0.000000 -91.508374 33.047601 2.913277 -16.396774 -26.055665 -3.818583 -69.528238 4.665432 19.097202 0.000000 0.000000 0.000000 7.125000 0.000000 0.000000 -62.431579 63.254690 33.917786
3.357287 16.760539 2.306410 -177.627676 -26.110604 -169.380544 0.000000 0.000000 0.000000 -29.888409 -36.398494 22.635422 0.029439 -1.107668 -3.045199 8.933975 -16.648834 -55.860831 0.312420 -3.591328 -9.929877 0.000000 0.000000 0.000000 31.973167 31.113254 18.948074 -0.219455 3.015845 -8.322815 -3.793503 -19.756578 -47.198173 -0.392464 -4.022761 11.140644 1.602002 3.804101 3.432554 -2.258588 3.405736 -15.542824 -3.942420 0.333268 -19.513885 11.099487 8.864514 -14.228434 -10.000810 11.597660 34.314018 -4.327717 4.221072 15.895224 0.000000 0.000000 0.000000 80.462677 18.939499 16.807751 17.303593 -27.256150 4.225494 78.543946 54.834977 -33.290511 0.000000 0.000000 0.000000 -7.125000 0.000000 0.000000 111.535768 -69.530098 132.962894 0.000000 0.000000 0.000000 -90.850297 33.121741 2.350403 -16.317742 -25.949380 -3.784055 -69.639718 5.731597 19.657620 0.000000 0.000000 0.000000 7.125000 0.000000 0.000000 -64.046817 63.869587 35.998812
3.358208 16.759840 2.311276 -177.631681 -26.163005 -169.325591 0.000000 0.000000 0.000000 -29.689331 -36.235474 22.329439 0.028844 -1.096522 -3.014458 8.810126 -16.637303 -55.431012 0.288124 -3.451936 -9.539594 0.000000 0.000000 0.000000 31.917726 31.128917 18.854419 -0.218500 3.009120 -8.304156 -3.805537 -19.741750 -47.233411 -0.393480 -4.027857 11.155078 1.561110 3.785914 3.409087 -2.217179 3.375170 -15.563934 -3.864475 0.327378 -19.534803 11.149335 8.919666 -14.316455 -9.985484 11.660653 34.384759 -4.318561 4.251836 15.964917 0.000000 0.000000 0.000000 80.043533 19.367432 16.686423 17.363660 -27.334603 4.253009 78.316669 54.134273 -33.325256 0.000000 0.000000 0.000000 -7.125000 0.000000 0.000000 110.978474 -69.679031 132.284655 0.000000 0.000000 0.000000 -90.074760 33.072798 1.361125 -16.178521 -25.762139 -3.723226 -69.646687 6.904075 20.141963 0.000000 0.000000 0.000000 7.125000 0.000000 0.000000 -65.198193 64.361324 37.581250
3.360291 16.758676 2.316606 -177.664154 -26.205586 -169.240427 0.000000 0.000000 0.000000 -29.635843 -36.356664 22.208494 0.029702 -1.112390 -3.058082 8.791317 -16.571684 -55.365577 0.278934 -3.396610 -9.384952 0.000000 0.000000 0.000000 31.833236 31.175604 18.711846 -0.214640 2.982468 -8.229898 -3.788872 -19.798730 -47.210435 -0.387291 -3.996120 11.065810 1.513014 3.788120 3.372142 -2.226431 3.364938 -15.580048 -3.844686 0.326949 -19.534864 11.105589 8.891973 -14.392858 -9.919497 11.603735 34.478623 -4.296566 4.225490 16.011604 0.000000 0.000000 0.000000 79.650126 19.650065 16.789232 17.372544 -27.346244 4.257053 77.779097 53.243303 -33.471198 0.000000 0.000000 0.000000 -7.125000 0.000000 0.000000 109.855724 -70.033103 130.838956 0.000000 0.000000 0.000000 -89.459744 33.200237 0.741575 -16.059169 -25.600634 -3.671576 -69.180922 5.684765 19.673808 0.000000 0.000000 0.000000 7.125000 0.000000 0.000000 -62.721770 63.761074 34.837451
